<svg width="45" height="12" viewBox="0 0 45 12" fill="none" xmlns="http://www.w3.org/2000/svg">
<path fill-rule="evenodd" clip-rule="evenodd" d="M18.6711 9.93891H18.6509C18.66 9.93891 18.666 9.94882 18.6751 9.94981H18.6811L18.6711 9.9399V9.93891ZM18.6751 9.94981C18.5814 9.9508 18.3456 9.99935 18.0967 9.99935C17.3108 9.99935 17.0387 9.64262 17.0387 9.17689V6.07435H18.6408C18.7315 6.07435 18.8021 5.99508 18.8021 5.88608V4.20153C18.8021 4.11235 18.7215 4.03308 18.6408 4.03308H17.0387V1.94225C17.0387 1.86298 16.9884 1.81344 16.8977 1.81344H14.7212C14.6305 1.81344 14.5802 1.86298 14.5802 1.94225V4.09253C14.5802 4.09253 13.4819 4.36008 13.4113 4.36999C13.3307 4.3898 13.2803 4.45917 13.2803 4.53844V5.88608C13.2803 5.99508 13.3609 6.07435 13.4516 6.07435H14.5701V9.32454C14.5701 11.7424 16.283 11.9901 17.4519 11.9901C17.9859 11.9901 18.6308 11.8216 18.7315 11.7721C18.792 11.7523 18.8222 11.6829 18.8222 11.6135V10.1272C18.8236 10.085 18.8095 10.0438 18.7825 10.011C18.7555 9.97827 18.7173 9.95618 18.6751 9.94881V9.94981ZM42.5515 7.76881C42.5515 5.97526 41.8159 5.73744 41.0401 5.81672C40.4355 5.85635 39.9519 6.15363 39.9519 6.15363V9.64163C39.9519 9.64163 40.4456 9.97854 41.1811 9.99836C42.219 10.0281 42.5515 9.66145 42.5515 7.76881ZM45 7.61027C45 11.0091 43.8815 11.9802 41.9268 11.9802C40.2743 11.9802 39.3876 11.1577 39.3876 11.1577C39.3876 11.1577 39.3473 11.6135 39.2969 11.673C39.2667 11.7325 39.2163 11.7523 39.1558 11.7523H37.6646C37.5638 11.7523 37.4731 11.673 37.4731 11.5838L37.4933 0.574797C37.4933 0.485615 37.5739 0.406343 37.6646 0.406343H39.8108C39.9015 0.406343 39.9821 0.485615 39.9821 0.574797V4.31053C39.9821 4.31053 40.8083 3.78535 42.0175 3.78535L42.0074 3.76553C43.2165 3.76553 45 4.21144 45 7.61027V7.61027ZM36.2136 4.03308H34.0976C33.9868 4.03308 33.9263 4.11235 33.9263 4.22135V9.6119C33.9263 9.6119 33.3721 9.99836 32.6164 9.99836C31.8607 9.99836 31.639 9.66145 31.639 8.91827V4.21144C31.639 4.12226 31.5584 4.04299 31.4678 4.04299H29.3115C29.2208 4.04299 29.1402 4.12226 29.1402 4.21144V9.275C29.1402 11.455 30.3795 12 32.0824 12C33.483 12 34.6216 11.237 34.6216 11.237C34.6216 11.237 34.672 11.6235 34.7022 11.6829C34.7223 11.7325 34.7929 11.7721 34.8634 11.7721H36.2136C36.3244 11.7721 36.3849 11.6928 36.3849 11.6036L36.4051 4.20153C36.4051 4.11235 36.3244 4.03308 36.2136 4.03308V4.03308ZM12.3332 4.02317H10.187C10.0963 4.02317 10.0157 4.11235 10.0157 4.22135V11.4946C10.0157 11.6928 10.1467 11.7622 10.318 11.7622H12.2526C12.4541 11.7622 12.5045 11.673 12.5045 11.4946V4.19162C12.5045 4.10244 12.4239 4.02317 12.3332 4.02317V4.02317ZM11.2752 0.673889C10.4993 0.673889 9.88468 1.27834 9.88468 2.04135C9.88468 2.80435 10.4993 3.4088 11.2752 3.4088C12.0309 3.4088 12.6455 2.80435 12.6455 2.04135C12.6455 1.27834 12.0309 0.673889 11.2752 0.673889ZM27.8907 0.426161H25.7647C25.674 0.426161 25.5934 0.505434 25.5934 0.594616V4.64744H22.2582V0.594616C22.2582 0.505434 22.1776 0.426161 22.0869 0.426161H19.9407C19.85 0.426161 19.7694 0.505434 19.7694 0.594616V11.6036C19.7694 11.6928 19.8601 11.7721 19.9407 11.7721H22.0869C22.1776 11.7721 22.2582 11.6928 22.2582 11.6036V6.89681H25.5934L25.5732 11.6036C25.5732 11.6928 25.6538 11.7721 25.7445 11.7721H27.8907C27.9814 11.7721 28.062 11.6928 28.062 11.6036V0.594616C28.062 0.505434 27.9814 0.426161 27.8907 0.426161V0.426161ZM8.87707 5.30144V10.9893C8.87707 11.0289 8.86699 11.0983 8.81661 11.1181C8.81661 11.1181 7.5571 12 5.48142 12C2.97246 12 0 11.2271 0 6.13381C0 1.04053 2.59964 -0.00983995 5.13883 6.9155e-05C7.33542 6.9155e-05 8.22212 0.485615 8.36319 0.574797C8.40349 0.624343 8.42364 0.66398 8.42364 0.713525L8.00045 2.47735C8.00045 2.56653 7.90976 2.67553 7.79892 2.6458C7.43618 2.5368 6.89207 2.3188 5.6124 2.3188C4.13121 2.3188 2.53918 2.73498 2.53918 6.0149C2.53918 9.29481 4.0506 9.68127 5.13883 9.68127C6.06583 9.68127 6.39834 9.57227 6.39834 9.57227V7.29317H4.91715C4.80631 7.29317 4.72571 7.2139 4.72571 7.12472V5.30144C4.72571 5.21226 4.80631 5.13299 4.91715 5.13299H8.68562C8.79646 5.13299 8.87707 5.21226 8.87707 5.30144Z" fill="#636363" fill-opacity="0.5"/>
</svg>
